<?xml version="1.0" encoding="UTF-8" standalone="no"?>
<svg
   id="Layer_1"
   style="enable-background:new 0 0 512 512;"
   version="1.1"
   viewBox="0 0 512 512"
   xml:space="preserve"
   sodipodi:docname="close.svg"
   inkscape:version="1.1.2 (0a00cf5339, 2022-02-04, custom)"
   xmlns:inkscape="http://www.inkscape.org/namespaces/inkscape"
   xmlns:sodipodi="http://sodipodi.sourceforge.net/DTD/sodipodi-0.dtd"
   xmlns="http://www.w3.org/2000/svg"
   xmlns:svg="http://www.w3.org/2000/svg"><defs
     id="defs71" /><sodipodi:namedview
     id="namedview69"
     pagecolor="#505050"
     bordercolor="#eeeeee"
     borderopacity="1"
     inkscape:pageshadow="0"
     inkscape:pageopacity="0"
     inkscape:pagecheckerboard="0"
     showgrid="false"
     inkscape:zoom="0.98901497"
     inkscape:cx="257.8323"
     inkscape:cy="252.27121"
     inkscape:window-width="916"
     inkscape:window-height="738"
     inkscape:window-x="0"
     inkscape:window-y="0"
     inkscape:window-maximized="1"
     inkscape:current-layer="Layer_1" /><style
     type="text/css"
     id="style64">
	.st0{fill:#231F20;}
</style><path
     id="path66"
     style="fill:#ff0000"
     class="st0"
     d="m 154.15138,152.79216 c -7.82956,7.72645 -7.91393,20.45409 -0.18748,28.28365 l 73.75245,74.73671 -74.73671,73.75245 c -7.82956,7.72645 -7.91392,20.45409 -0.18748,28.28365 7.72645,7.82956 20.45409,7.91393 28.28365,0.18748 l 74.73671,-73.75245 73.75245,74.73671 c 7.72645,7.82956 20.45409,7.91392 28.28365,0.18748 7.82956,-7.72645 7.91393,-20.45409 0.18748,-28.28365 l -73.75245,-74.73671 74.73671,-73.75245 c 7.82956,-7.72645 7.91392,-20.45409 0.18748,-28.28365 -7.72645,-7.82956 -20.45409,-7.91393 -28.28365,-0.18748 l -74.73671,73.75245 -73.75245,-74.73671 c -7.72645,-7.82956 -20.45409,-7.91392 -28.28365,-0.18748 z" /></svg>
